<?xml version="1.0" encoding="UTF-8"?><svg id="Capa_2" xmlns="http://www.w3.org/2000/svg" xmlns:xlink="http://www.w3.org/1999/xlink" viewBox="0 0 44.77 44.77"><defs><style>.cls-1{fill:url(#Degradado_sin_nombre_18);}.cls-2{fill:url(#Degradado_sin_nombre_10);}.cls-3{fill:url(#Degradado_sin_nombre_11);}.cls-4{fill:url(#Degradado_sin_nombre_27);}</style><linearGradient id="Degradado_sin_nombre_11" x1=".23" y1="-8.62" x2="25.7" y2="27.02" gradientUnits="userSpaceOnUse"><stop offset="0" stop-color="#063"/><stop offset=".12" stop-color="#0a8340"/><stop offset=".26" stop-color="#13a04e"/><stop offset=".41" stop-color="#1bb758"/><stop offset=".57" stop-color="#20c760"/><stop offset=".75" stop-color="#23d164"/><stop offset="1" stop-color="#25d466"/></linearGradient><linearGradient id="Degradado_sin_nombre_10" x1="16.94" y1="40.49" x2="35.34" y2="8.62" gradientUnits="userSpaceOnUse"><stop offset="0" stop-color="#008d36"/><stop offset="1" stop-color="#25d466"/></linearGradient><linearGradient id="Degradado_sin_nombre_18" x1="26.27" y1="44.63" x2="15.98" y2="-14.26" gradientUnits="userSpaceOnUse"><stop offset="0" stop-color="#25d466"/><stop offset=".19" stop-color="#2dc151"/><stop offset=".41" stop-color="#33b341"/><stop offset=".66" stop-color="#37ab37"/><stop offset="1" stop-color="#39a935"/></linearGradient><linearGradient id="Degradado_sin_nombre_27" x1="16.9" y1="46.27" x2="6.6" y2="-12.62" gradientUnits="userSpaceOnUse"><stop offset="0" stop-color="#25d466"/><stop offset="1" stop-color="#008d36"/></linearGradient></defs><g id="Capa_1-2"><circle class="cls-3" cx="22.38" cy="22.38" r="18.4"/><path class="cls-2" d="M22.38,3.99c-.2,0-.41,0-.61.02v36.77c.2,0,.41.02.61.02,10.16,0,18.4-8.24,18.4-18.4S32.55,3.99,22.38,3.99Z"/><path class="cls-1" d="M22.38,0C10.02,0,0,10.02,0,22.38s10.02,22.38,22.38,22.38,22.38-10.02,22.38-22.38S34.75,0,22.38,0ZM22.38,42.81c-11.28,0-20.42-9.14-20.42-20.42S11.11,1.96,22.38,1.96s20.42,9.14,20.42,20.42-9.14,20.42-20.42,20.42Z"/><path class="cls-4" d="M21.87,42.79c-11.04-.27-19.91-9.3-19.91-20.41S10.83,2.25,21.87,1.98V.01C9.75.29,0,10.19,0,22.38s9.75,22.1,21.87,22.37v-1.96Z"/></g></svg>