<?xml version="1.0" encoding="UTF-8"?>
<svg id="Capa_2" xmlns="http://www.w3.org/2000/svg" version="1.1" viewBox="0 0 72.3 40">
  <!-- Generator: Adobe Illustrator 29.2.1, SVG Export Plug-In . SVG Version: 2.1.0 Build 116)  -->
  <defs>
    <style>
      .st0 {
        fill: #d32d35;
      }

      .st1 {
        fill: #fff;
      }
    </style>
  </defs>
  <g id="Capa_1-2">
    <g>
      <path class="st1" d="M68.6.3H3.7C1.9.3.5,1.7.5,3.5v23.2c0,1.8,1.4,3.2,3.2,3.2h25.3c.5,0,.9.2,1.1.6l5,8.6c.5.8,1.7.8,2.2,0l5-8.6c.2-.4.7-.6,1.1-.6h25.3c1.8,0,3.2-1.4,3.2-3.2V3.5c0-1.8-1.4-3.2-3.2-3.2"/>
      <path class="st0" d="M36.1,40.2c-.6,0-1.2-.3-1.5-.9l-5-8.6c-.1-.2-.4-.4-.7-.4H3.7C1.7,30.3,0,28.7,0,26.6V3.5C0,1.4,1.7-.2,3.7-.2h64.9c2,0,3.7,1.7,3.7,3.7v23.2c0,2-1.7,3.7-3.7,3.7h-25.3c-.3,0-.5.2-.7.4l-5,8.6c-.3.6-.9.9-1.5.9ZM3.7.8C2.2.8,1,2,1,3.5v23.2c0,1.5,1.2,2.7,2.7,2.7h25.3c.6,0,1.2.3,1.5.9l5,8.6c.3.5,1.1.5,1.4,0l5-8.6c.3-.5.9-.9,1.5-.9h25.3c1.5,0,2.7-1.2,2.7-2.7V3.5c0-1.5-1.2-2.7-2.7-2.7H3.7Z"/>
    </g>
  </g>
</svg>