<?xml version="1.0" encoding="UTF-8"?><svg id="Capa_2" xmlns="http://www.w3.org/2000/svg" xmlns:xlink="http://www.w3.org/1999/xlink" viewBox="0 0 44.77 44.77"><defs><style>.cls-1{fill:url(#Degradado_sin_nombre_43);}.cls-2{fill:url(#Degradado_sin_nombre_35);}.cls-3{fill:url(#Degradado_sin_nombre_38);}.cls-4{fill:url(#Degradado_sin_nombre_41);}</style><linearGradient id="Degradado_sin_nombre_38" x1=".23" y1="-8.62" x2="25.7" y2="27.02" gradientUnits="userSpaceOnUse"><stop offset="0" stop-color="#a9201f"/><stop offset=".09" stop-color="#b0201f"/><stop offset=".34" stop-color="#c0201f"/><stop offset=".62" stop-color="#ca201f"/><stop offset="1" stop-color="#cd201f"/></linearGradient><linearGradient id="Degradado_sin_nombre_35" x1="16.94" y1="40.49" x2="35.34" y2="8.62" gradientUnits="userSpaceOnUse"><stop offset="0" stop-color="#a9201f"/><stop offset="1" stop-color="#cd201f"/></linearGradient><linearGradient id="Degradado_sin_nombre_41" x1="26.27" y1="44.63" x2="15.98" y2="-14.26" gradientUnits="userSpaceOnUse"><stop offset="0" stop-color="#cd201f"/><stop offset=".09" stop-color="#c5201f"/><stop offset=".34" stop-color="#b5201f"/><stop offset=".62" stop-color="#ab201f"/><stop offset="1" stop-color="#a9201f"/></linearGradient><linearGradient id="Degradado_sin_nombre_43" x1="16.9" y1="46.27" x2="6.6" y2="-12.62" gradientUnits="userSpaceOnUse"><stop offset="0" stop-color="#cd201f"/><stop offset="1" stop-color="#a9201f"/></linearGradient></defs><g id="Capa_1-2"><circle class="cls-3" cx="22.38" cy="22.38" r="18.4"/><path class="cls-2" d="M22.38,3.99c-.2,0-.41,0-.61.02v36.77c.2,0,.41.02.61.02,10.16,0,18.4-8.24,18.4-18.4S32.55,3.99,22.38,3.99Z"/><path class="cls-4" d="M22.38,0C10.02,0,0,10.02,0,22.38s10.02,22.38,22.38,22.38,22.38-10.02,22.38-22.38S34.75,0,22.38,0ZM22.38,42.81c-11.28,0-20.42-9.14-20.42-20.42S11.11,1.96,22.38,1.96s20.42,9.14,20.42,20.42-9.14,20.42-20.42,20.42Z"/><path class="cls-1" d="M21.87,42.79c-11.04-.27-19.91-9.3-19.91-20.41S10.83,2.25,21.87,1.98V.01C9.75.29,0,10.19,0,22.38s9.75,22.1,21.87,22.37v-1.96Z"/></g></svg>