<?xml version="1.0" encoding="UTF-8"?><svg id="Capa_2" xmlns="http://www.w3.org/2000/svg" viewBox="0 0 187.37 36.44"><defs><style>.cls-1{fill:#7c7c7b;}.cls-2{fill:#d32d35;}</style></defs><g id="Capa_1-2"><path class="cls-2" d="M86.93,12.64h-8.4v3.62h6.6v3.32h-6.6v3.85h8.4v3.49h-12.6V9.28h12.6v3.36Z"/><path class="cls-1" d="M89.02,9.28h2.86v10.94c0,1.22.06,2.13.19,2.71.13.58.42,1.04.88,1.38s1.08.51,1.87.51c.74,0,1.32-.14,1.73-.42.41-.28.71-.68.88-1.19.17-.51.26-1.53.26-3.04v-10.89h2.62v10.75c0,1.72-.12,3.05-.37,3.98-.25.93-.81,1.7-1.71,2.31-.89.61-2.09.92-3.59.92-1.16,0-2.17-.19-3.03-.58-.86-.38-1.51-1-1.94-1.86-.44-.86-.66-2.38-.66-4.58v-10.94Z"/><path class="cls-1" d="M103.38,9.28h5.31c1.92,0,3.34.44,4.25,1.31.91.87,1.37,2.12,1.37,3.75,0,2.17-.9,3.71-2.7,4.61l3.35,7.97h-3.17l-2.74-7.37h-2.75v7.37h-2.92V9.28ZM106.3,11.54v5.75h2.24c1,0,1.73-.28,2.2-.83.47-.55.7-1.27.7-2.16,0-1.84-.96-2.77-2.88-2.77h-2.26Z"/><path class="cls-1" d="M129.03,18.09c0,3.02-.54,5.29-1.62,6.84-1.08,1.54-2.64,2.31-4.69,2.31s-3.64-.77-4.73-2.31c-1.09-1.54-1.64-3.82-1.64-6.84s.54-5.27,1.63-6.82c1.09-1.55,2.66-2.32,4.73-2.32s3.61.77,4.69,2.31c1.09,1.54,1.63,3.81,1.63,6.83ZM125.97,18.1c0-2.1-.24-3.74-.73-4.95-.49-1.2-1.34-1.8-2.55-1.8s-2.06.6-2.55,1.81c-.48,1.21-.72,2.85-.72,4.94s.24,3.69.71,4.92c.47,1.22,1.34,1.84,2.6,1.84,1.18,0,2.02-.59,2.51-1.78.49-1.19.74-2.84.74-4.97Z"/><path class="cls-2" d="M145.33,9.28v17.64h-4.06v-7.27h-5.5v7.27h-4.06V9.28h4.06v6.87h5.5v-6.87h4.06Z"/><path class="cls-1" d="M151.92,9.28h3.27l4.74,17.64h-2.96l-1.11-4.42h-5.17l-1.1,4.42h-2.78l5.11-17.64ZM155.29,20.2l-2.02-8.08-2,8.08h4.03Z"/><path class="cls-1" d="M161.5,9.28h5.31c1.92,0,3.34.44,4.25,1.31.91.87,1.37,2.12,1.37,3.75,0,2.17-.9,3.71-2.7,4.61l3.35,7.97h-3.17l-2.74-7.37h-2.75v7.37h-2.92V9.28ZM164.42,11.54v5.75h2.24c1,0,1.73-.28,2.2-.83.47-.55.7-1.27.7-2.16,0-1.84-.96-2.77-2.88-2.77h-2.26Z"/><path class="cls-1" d="M175.28,9.28h3.97c1.92,0,3.46.34,4.61,1.02s2.02,1.69,2.61,3.04c.59,1.34.89,2.83.89,4.47,0,1.72-.27,3.26-.8,4.61-.53,1.35-1.34,2.44-2.43,3.26-1.09.83-2.65,1.24-4.66,1.24h-4.19V9.28ZM178.21,11.62v12.96h1.22c1.7,0,2.94-.59,3.7-1.76.77-1.18,1.15-2.75,1.15-4.71,0-4.32-1.62-6.49-4.86-6.49h-1.22Z"/><polygon class="cls-2" points="19.38 9.21 19.38 27.24 32.99 27.24 32.99 22.81 24.87 22.81 24.87 20 37.22 20 37.22 27.24 42.63 27.24 42.63 9.21 37.22 9.21 37.22 15.84 24.93 15.84 24.93 13.36 32.99 13.36 32.99 9.21 19.38 9.21"/><path class="cls-1" d="M31.01,1.62h0C15.01,1.62,1.99,9.07,1.99,18.22s13.02,16.61,29.01,16.61,29.02-7.44,29.02-16.61S47,1.62,31.01,1.62h0ZM31.01,36.44c-8.23,0-15.98-1.86-21.81-5.25C3.26,27.75,0,23.15,0,18.22S3.26,8.69,9.19,5.25C15.03,1.87,22.77,0,31.01,0s15.98,1.87,21.81,5.25c5.93,3.44,9.2,8.05,9.2,12.97s-3.27,9.53-9.2,12.97c-5.83,3.39-13.58,5.25-21.81,5.25Z"/></g></svg>