<?xml version="1.0" encoding="UTF-8"?><svg id="Capa_2" xmlns="http://www.w3.org/2000/svg" viewBox="0 0 180 105.77"><defs><style>.cls-1{fill:#7c7c7b;}.cls-2{fill:#d32d35;}</style></defs><g id="Capa_1-2"><polygon class="cls-2" points="56.26 26.72 56.26 79.06 95.75 79.06 95.75 66.22 72.17 66.22 72.17 58.06 108.02 58.06 108.02 79.06 123.74 79.06 123.74 26.72 108.02 26.72 108.02 45.98 72.36 45.98 72.36 38.79 95.75 38.79 95.75 26.72 56.26 26.72"/><path class="cls-1" d="M90,4.69h0C43.57,4.69,5.79,26.31,5.79,52.89s37.78,48.19,84.21,48.19,84.22-21.61,84.22-48.19S136.42,4.69,90,4.69h0ZM90,105.77c-23.9,0-46.38-5.4-63.31-15.24C9.47,80.55,0,67.18,0,52.88S9.47,25.22,26.69,15.24C43.62,5.42,66.1,0,90,0s46.37,5.42,63.3,15.24c17.21,9.98,26.7,23.35,26.7,37.65s-9.48,27.66-26.7,37.65c-16.93,9.83-39.41,15.24-63.3,15.24Z"/></g></svg>